<svg xmlns="http://www.w3.org/2000/svg" viewBox="0 0 800 800" fill="none" stroke-linecap="round" stroke-linejoin="round">
  <g stroke="#1e8c8c" stroke-width="26">
    <path d="M624.35,425l66.74,66.28a1.74,1.74,0,0,0,3-1.25l-1.2-167.56-91.47-99.81L493.81,247.23l79.21-50,20.73-74.07-94.93,40.26s-149.42-35.22-250.6-.9l-55.35,81.09-97.23,77,39.71,79.61,17,3.47-4.81,22.81,41.77,51.79,49.45,22.6L270.34,462"/>
    <path d="M573.91,561.18S331.25,415.35,270.34,462"/>
    <path d="M404,600.1c-.27-.06-45.67-44.77-45.67-44.77l63.9-71.07"/>
  </g>
  <g stroke="#8c2020" stroke-width="24">
    <circle cx="602.46" cy="580.89" r="31.92"/>
    <circle cx="425.88" cy="623.79" r="31.92"/>
    <circle cx="606.01" cy="404.18" r="31.92"/>
  </g>
</svg>
