<svg id="Layer_1" data-name="Layer 1" xmlns="http://www.w3.org/2000/svg" viewBox="60 60 680 680"><defs><style>.cls-1{fill:#1e8c8c;}.cls-2{fill:#0d1b2d;}.cls-3{fill:#8d201f;}</style></defs><path class="cls-1" d="M225.07,421.57c46.29-1.48,89.5-20.35,132.56-41.57,42.07-20.71,83.84-44.16,127.1-54.18,34.15-7.91,67.58-8,99.21,13.18,19.58,13.1,39.8,40.1,48.36,66.78-5.18-2.48-9.6-4.56-14-6.72-35.79-17.61-72.83-17.42-110.41-8.17-33.57,8.26-66.37,24.35-99.22,39.84-31.29,14.75-62.67,28.69-94.88,30.88-19.4,1.32-38.66.14-57.07-9.06C245.06,446.72,234.79,437.14,225.07,421.57Z"/><path class="cls-1" d="M623.31,481.38A57.61,57.61,0,0,0,613.23,472c-34.22-27-71.37-33.12-109.66-31.42-48.5,2.14-109.4,31.29-157.06,44.41-48.76,13.42-97.61,24.47-149.12,17.49,10.13,17.42,21.13,28.93,33.82,36.92,20,12.61,41.39,17.34,63,19.55,35.89,3.72,71.37-4.53,106.79-13.64,37.19-9.54,87.79-33,125.46-35.11,19.83-1.12,27.81-2.16,47.07,1.6a221.36,221.36,0,0,1,30.89,6.69,232.94,232.94,0,0,1,40.71,16.26A95.5,95.5,0,0,0,636,499.52,71.22,71.22,0,0,0,623.31,481.38Z"/><path class="cls-1" d="M590,274c-25.22-4.92-50.21,0-75.14,9.66-19.78,7.65-39.5,16-59.24,24-48.49,19.86-97.2,36.74-146.45,46-1.29.24-2.71,1.28-4.12-1.47,13.56-16.92,28.08-30.78,42.63-44.42,32.53-30.47,65.92-57.57,101.86-71.93,37.17-14.85,73.93-18.24,108.92,5.34C570,249,580.92,258.76,590,274Z"/><path class="cls-2" d="M243.07,213.27q4.23,22.28,8.49,44.54c.41,2.16.5,4-2.65,3-5.16-1.63-10.24-.7-15.89.54,1.67-16.49,6.16-32.07,8.48-48Z"/><path class="cls-2" d="M241.67,350.6q-4-21.92-8-43.84c-.42-2.31-.18-3.63,2.84-2.88a23,23,0,0,0,11.38-.06c3.62-.94,3.85.7,3.31,3.48-2.78,14.43-5.48,28.88-8.2,43.32Z"/><path class="cls-3" d="M259.49,282.1c.13,8.49-7.4,15.94-16.42,16.23-9.37.3-17.73-7.11-17.75-15.71a17.09,17.09,0,0,1,34.17-.52Z"/><path class="cls-2" d="M176.64,282.39a361.42,361.42,0,0,1,45.24-9.76c-2.2,5.76-3.17,11.11-1.17,16.51.83,2.23-.18,2.73-2.14,2.31C204.59,288.46,190.62,285.41,176.64,282.39Z"/><path class="cls-2" d="M262.86,272.15l45.32,10c0,.3-.08.6-.11.9-13.53,2.6-27.07,5.17-40.59,7.81-2.68.53-3.63-.33-3-2.83C265.88,283,265.46,278.14,262.86,272.15Z"/><path class="cls-2" d="M437.09,555.19c-176.62,42.57-335.88,9.58-355.68-73.72-13.56-57,41.84-122.89,134.82-172.37l-.85-1.61C111.8,359.68,49.13,430.65,63.64,491.67,84.18,578,251.39,611.7,437.16,566.9c47.73-11.51,92-27.09,131.14-45.34a121.42,121.42,0,0,0-16.24-5.22A662.59,662.59,0,0,1,437.09,555.19Z"/><path class="cls-2" d="M736.36,329.5c-12-50.36-73.9-82.8-160.28-92.21.47.59,1,1.19,1.45,1.78,77.35,10.6,132.39,41.48,143.51,88.23,10.17,42.73-18.35,90.38-72.37,132.43Q640,466.47,630.47,473A29,29,0,0,1,640,481.4c6.5-4.39,12.75-8.85,18.68-13.38C716.33,424,747,374.09,736.36,329.5Z"/></svg>