<svg id="Layer_1" data-name="Layer 1" xmlns="http://www.w3.org/2000/svg" viewBox="38 315 744 220"><defs><style>.cls-1{fill:#eef2f7;}.cls-2{fill:#4a6581;}.cls-3{fill:#1e8c8c;}.cls-4{fill:#8d201f;}</style></defs><path class="cls-1" d="M137.25,345,103.09,465.3H88.43L63.08,378.39h16l17.06,65.67L122.45,345Z"/><path class="cls-1" d="M222.39,450.51V465.3H147.21V346.35h73.11v14.79H162v36.53H214v14.44H162v38.4Z"/><path class="cls-1" d="M245.19,462.49q-10.87-4.15-17.09-10.79l5.47-13.25a44.41,44.41,0,0,0,15.17,9.94,49.35,49.35,0,0,0,19,3.82q12.87,0,19.24-5a16.13,16.13,0,0,0,6.36-13.34,14.23,14.23,0,0,0-3.47-9.94,22.86,22.86,0,0,0-8.59-5.86,141.35,141.35,0,0,0-14.43-4.59A133.81,133.81,0,0,1,248,407a31.55,31.55,0,0,1-12.28-9.94q-5.11-6.7-5.11-18.09A34,34,0,0,1,235,361.82a31.23,31.23,0,0,1,13.24-12.24Q257.1,345,270.28,345a61.43,61.43,0,0,1,18.05,2.72,45.52,45.52,0,0,1,15.25,7.82l-4.89,13.59a50.54,50.54,0,0,0-13.91-7.22,45.8,45.8,0,0,0-14.5-2.46q-12.58,0-18.87,5.26a16.92,16.92,0,0,0-6.29,13.6,14,14,0,0,0,3.55,9.94,24.26,24.26,0,0,0,8.8,5.95,126.69,126.69,0,0,0,14.29,4.5,129.66,129.66,0,0,1,18.79,6.46A31.93,31.93,0,0,1,302.76,415q5.1,6.63,5.11,17.84a33.68,33.68,0,0,1-4.44,17.08A30.89,30.89,0,0,1,290,462.15q-9,4.52-22.2,4.51A62.54,62.54,0,0,1,245.19,462.49Z"/><path class="cls-1" d="M736.16,435.56H681.1L669.71,465.3H654.46l46.92-118.95H716l47.06,119H747.56ZM731,422l-22.35-58.29L686.28,422Z"/><path class="cls-2" d="M81,524.39H79.74a.27.27,0,0,1-.17-.06.24.24,0,0,1-.09-.15.56.56,0,0,1,0-.22c.35-1,.7-2,1.06-3s.71-2,1-3,.7-2,1.06-3,.71-2,1.07-3,.71-2,1-3,.7-2,1.06-3l1-3h2.66a.39.39,0,0,1,.2.05.19.19,0,0,1,.1.12.87.87,0,0,1,.07.17l1.59,4.89,1.59,4.87q.78,2.43,1.59,4.88t1.58,4.89l.31.92c.1.3.2.61.31.91H95.54a.4.4,0,0,1-.2,0,.32.32,0,0,1-.12-.17l-.14-.34c-.32-1-.71-2.2-1.14-3.56S93,517.49,92.53,516s-1-3-1.48-4.53l-1.38-4.25c-.43-1.32-.8-2.46-1.13-3.42l.49.37H87.65l.49-.34c-.34,1-.74,2.06-1.17,3.3s-.91,2.58-1.41,4-1,2.92-1.54,4.43l-1.58,4.53Zm1.77-8.46h9.88l.67-.31.18.92.15.82H83.07a.33.33,0,0,1-.17,0,.37.37,0,0,1-.12-.13.3.3,0,0,1,0-.16Z"/><path class="cls-2" d="M107.83,525a6.9,6.9,0,0,1-2.42-.39,4.69,4.69,0,0,1-1.74-1.15,5.07,5.07,0,0,1-1.07-1.8,7.36,7.36,0,0,1-.37-2.37V503h1.2a.35.35,0,0,1,.17,0,.34.34,0,0,1,.12.12.33.33,0,0,1,0,.17v15.9a4.43,4.43,0,0,0,1.1,3.19,4,4,0,0,0,3,1.15,7.06,7.06,0,0,0,2.78-.57,7.83,7.83,0,0,0,2.65-2,17.4,17.4,0,0,0,2.55-3.91v4.19h-1.26a10.66,10.66,0,0,1-1.83,2,8,8,0,0,1-2.23,1.29A7.84,7.84,0,0,1,107.83,525Zm8.92-.61h-1.31a.19.19,0,0,1-.09,0l-.06-.08a.41.41,0,0,1-.05-.09.31.31,0,0,1,0-.1V503h1.19a.35.35,0,0,1,.17,0,.34.34,0,0,1,.12.12.33.33,0,0,1,0,.17v21.06Z"/><path class="cls-2" d="M122.87,503H137.2a.35.35,0,0,1,.25.09.32.32,0,0,1,.09.24v1.1H123.2a.35.35,0,0,1-.17,0,.37.37,0,0,1-.12-.13.29.29,0,0,1,0-.16V503Zm8.1,21.39h-1.2a.31.31,0,0,1-.33-.33V503.61h1.71l-.18.33v20.45Z"/><path class="cls-2" d="M150,502.38a8.31,8.31,0,0,1,3.88.88,6.39,6.39,0,0,1,2.72,2.68,9.62,9.62,0,0,1,1,4.67V517a8.76,8.76,0,0,1-1.07,4.57,6.51,6.51,0,0,1-2.83,2.58,8.76,8.76,0,0,1-3.77.82,8.57,8.57,0,0,1-3.75-.82,6.51,6.51,0,0,1-2.79-2.6,8.71,8.71,0,0,1-1.07-4.59v-6.38a9.87,9.87,0,0,1,1-4.67,6.26,6.26,0,0,1,2.71-2.68A8.62,8.62,0,0,1,150,502.38Zm-6.15,14.8a7.34,7.34,0,0,0,.52,2.86,6.45,6.45,0,0,0,1.32,2,5.67,5.67,0,0,0,1.66,1.08,7.18,7.18,0,0,0,5.74-.32,5.57,5.57,0,0,0,2.18-2.23A7.23,7.23,0,0,0,156,517v-6.67a8.75,8.75,0,0,0-.24-2.14,6.71,6.71,0,0,0-.68-1.68,5.62,5.62,0,0,0-1-1.25,5.29,5.29,0,0,0-1.76-1.06,6.92,6.92,0,0,0-2.43-.41,6.61,6.61,0,0,0-3.53.84,4.92,4.92,0,0,0-2,2.31,8.54,8.54,0,0,0-.63,3.39Z"/><path class="cls-2" d="M165.63,524.39h-1.16a.33.33,0,0,1-.17,0,.37.37,0,0,1-.12-.13.3.3,0,0,1-.05-.16V503h2.35a.69.69,0,0,1,.22,0,.29.29,0,0,1,.15.12,1.33,1.33,0,0,1,.12.24c.45,1,.91,2,1.36,3.11s.93,2.16,1.39,3.28l1.43,3.41c.47,1.15,1,2.31,1.45,3.47s1,2.31,1.5,3.45l-1.5-1.89h2L173,520.11c.53-1.16,1.06-2.36,1.58-3.59s1.06-2.46,1.58-3.7l1.53-3.6,1.42-3.34c.45-1.05.87-2,1.25-2.88h2.36a.29.29,0,0,1,.16,0,.47.47,0,0,1,.13.11.3.3,0,0,1,0,.18v21.06h-1.19a.33.33,0,0,1-.17,0,.37.37,0,0,1-.12-.13.3.3,0,0,1,0-.16v-7c0-.78,0-1.58,0-2.38s0-1.63,0-2.46,0-1.69.05-2.57,0-1.78.07-2.72.06-1.91.08-2.91l.61.8h-1.89l1.09-1.07c-.46,1.08-1,2.22-1.48,3.41s-1,2.4-1.57,3.64L177,514.43l-1.47,3.38c-.47,1.06-.91,2-1.31,2.91h-1.13a.43.43,0,0,1-.19,0,.51.51,0,0,1-.18-.23l-.89-2.05c-.38-.9-.83-1.93-1.33-3.12l-1.59-3.74-1.68-3.93-1.57-3.67,1.1.89H165l.42-.92c.05,1,.08,2,.11,2.95s.06,1.87.08,2.75,0,1.75,0,2.59,0,1.66,0,2.47,0,1.62,0,2.4v7.32Z"/><path class="cls-2" d="M190.08,524.39h-1.22a.27.27,0,0,1-.17-.06.24.24,0,0,1-.09-.15.56.56,0,0,1,0-.22c.35-1,.7-2,1.06-3s.71-2,1.05-3,.7-2,1.06-3,.71-2,1.07-3,.71-2,1.05-3,.7-2,1.06-3,.71-2,1-3h2.66a.39.39,0,0,1,.2.05.25.25,0,0,1,.11.12l.06.17,1.59,4.89,1.59,4.87,1.59,4.88c.53,1.63,1.05,3.26,1.59,4.89l.3.92c.1.3.2.61.31.91h-1.35a.4.4,0,0,1-.2,0,.32.32,0,0,1-.12-.17,3.12,3.12,0,0,0-.14-.34c-.32-1-.7-2.2-1.14-3.56s-.91-2.79-1.41-4.29-1-3-1.48-4.53l-1.38-4.25c-.43-1.32-.8-2.46-1.13-3.42l.49.37h-1.37l.49-.34c-.35,1-.74,2.06-1.18,3.3s-.91,2.58-1.41,4-1,2.92-1.54,4.43l-1.58,4.53Zm1.77-8.46h9.88l.67-.31.18.92.16.82H192.19a.33.33,0,0,1-.17,0,.37.37,0,0,1-.12-.13.3.3,0,0,1-.05-.16Z"/><path class="cls-2" d="M208.15,503h14.33a.35.35,0,0,1,.25.09.32.32,0,0,1,.09.24v1.1H208.48a.33.33,0,0,1-.17,0,.37.37,0,0,1-.12-.13.29.29,0,0,1,0-.16V503Zm8.1,21.39h-1.2a.31.31,0,0,1-.33-.33V503.61h1.71l-.18.33v20.45Z"/><path class="cls-2" d="M226.79,503h14a.36.36,0,0,1,.19,0,.4.4,0,0,1,.1.12.34.34,0,0,1,0,.17v1.1h-14a.33.33,0,0,1-.17,0,.37.37,0,0,1-.12-.13.3.3,0,0,1-.05-.16V503Zm2.48,21.39-.12,0a.23.23,0,0,1-.11-.08.39.39,0,0,1-.08-.1.27.27,0,0,1,0-.12V503.3h1.68l-.15.34V523h10.36a.35.35,0,0,1,.25.09.32.32,0,0,1,.09.24v1.1Zm.27-11.61h9.75a.33.33,0,0,1,.17,0,.43.43,0,0,1,.12.11.3.3,0,0,1,0,.18v1.1H229.54Z"/><path class="cls-2" d="M262.1,516.9a8.63,8.63,0,0,1-.62,3.44,5.62,5.62,0,0,1-1.74,2.31A7.43,7.43,0,0,1,257.1,524a12.14,12.14,0,0,1-3.35.43h-5.84a.31.31,0,0,1-.23-.11.3.3,0,0,1-.1-.22V503.61h1.8l-.21.33v19h4.49a10.13,10.13,0,0,0,3.91-.65,4.32,4.32,0,0,0,2.26-2,7.4,7.4,0,0,0,.74-3.53v-6.17a9.86,9.86,0,0,0-.19-2.07,5.81,5.81,0,0,0-.56-1.6,4,4,0,0,0-1-1.19,5.1,5.1,0,0,0-1.38-.81,6.32,6.32,0,0,0-1.71-.4,22,22,0,0,0-2.32-.11h-7.65a.35.35,0,0,1-.17,0,.37.37,0,0,1-.12-.13.29.29,0,0,1,0-.16V503h8.62a12.2,12.2,0,0,1,3.34.42,6.9,6.9,0,0,1,2.54,1.32,5.63,5.63,0,0,1,1.61,2.31,9.63,9.63,0,0,1,.55,3.43Z"/><path class="cls-2" d="M279.21,503h.09a.15.15,0,0,1,.06.05.22.22,0,0,1,.07.12l1.74,5.06c.59,1.72,1.18,3.47,1.79,5.24s1.2,3.56,1.81,5.35,1.23,3.6,1.84,5.41l-1.16-1.07h2.11l-1,1.07c.47-1.41,1-2.82,1.43-4.23s1-2.84,1.49-4.27l1.5-4.26c.49-1.42,1-2.83,1.48-4.25s1-2.83,1.43-4.23h1.35c.06,0,.1,0,.12,0a.37.37,0,0,1,.05.11.42.42,0,0,1,0,.18c-.39,1.18-.78,2.37-1.19,3.55s-.82,2.37-1.22,3.56L291.71,514c-.4,1.19-.81,2.37-1.2,3.56l-1.21,3.56c-.41,1.19-.82,2.38-1.22,3.56h-2.66a.35.35,0,0,1-.28-.11,1.63,1.63,0,0,1-.21-.44c-.33-.9-.66-1.86-1-2.88s-.71-2.08-1.09-3.19l-1.14-3.39c-.39-1.15-.77-2.3-1.15-3.44s-.75-2.24-1.11-3.3c-.19-.57-.38-1.13-.57-1.67s-.38-1.08-.56-1.62-.38-1.09-.59-1.66h1.5Z"/><path class="cls-2" d="M300.46,503h10.05a.37.37,0,0,1,.25.09.32.32,0,0,1,.09.24v1.1H300.79a.3.3,0,0,1-.24-.1.37.37,0,0,1-.09-.23V503Zm10.39,21.39H300.79a.33.33,0,0,1-.15,0,.28.28,0,0,1-.11-.08.21.21,0,0,1-.06-.1.49.49,0,0,1,0-.12V523h10.05a.33.33,0,0,1,.17,0,.34.34,0,0,1,.12.12.34.34,0,0,1,.05.17v1.1Zm-4.43-.61H304.8l.09-.34V503.61h1.71l-.18.33v19.84Z"/><path class="cls-2" d="M324.66,502.38a15.64,15.64,0,0,1,2.36.16,10.16,10.16,0,0,1,1.89.43,6.86,6.86,0,0,1,1.44.64,4.66,4.66,0,0,1,1,.79.38.38,0,0,1,.09.15.61.61,0,0,1,0,.16v4.4h-1.19a.31.31,0,0,1-.34-.34V504.1l.71,1.55a5,5,0,0,0-2.5-1.45,15.41,15.41,0,0,0-3.68-.38,8.44,8.44,0,0,0-2.8.44,5.39,5.39,0,0,0-2.09,1.35,5.89,5.89,0,0,0-1.31,2.29,10.52,10.52,0,0,0-.46,3.32v5.87a7.51,7.51,0,0,0,.46,2.73,5.77,5.77,0,0,0,1.34,2.1,5.32,5.32,0,0,0,1.94,1.2,8.06,8.06,0,0,0,2.86.45,8.37,8.37,0,0,0,3-.48,6.18,6.18,0,0,0,1.84-1c.42-.35.63-.58.63-.68v-6.73h1.65l-.12.34v6.72a.56.56,0,0,1,0,.2.94.94,0,0,1-.12.2,6.08,6.08,0,0,1-1.67,1.48,9.16,9.16,0,0,1-2.38,1,10.57,10.57,0,0,1-2.77.36,10.17,10.17,0,0,1-3.48-.55,7.14,7.14,0,0,1-2.6-1.56,6.53,6.53,0,0,1-1.62-2.44,8.86,8.86,0,0,1-.55-3.21v-6.18a11.46,11.46,0,0,1,.55-3.72,6.77,6.77,0,0,1,4.29-4.39A10.52,10.52,0,0,1,324.66,502.38ZM324.33,514h8.22a.34.34,0,0,1,.17,0,.34.34,0,0,1,.12.12.31.31,0,0,1,.05.17v1.1h-8.23a.33.33,0,0,1-.15,0l-.11-.08a.24.24,0,0,1-.06-.11.49.49,0,0,1,0-.12V514Z"/><path class="cls-2" d="M337.44,503H347.5a.31.31,0,0,1,.33.33v1.1H337.78a.32.32,0,0,1-.25-.1.37.37,0,0,1-.09-.23V503Zm10.39,21.39H337.78a.41.41,0,0,1-.16,0,.25.25,0,0,1-.1-.08.21.21,0,0,1-.06-.1.5.5,0,0,1,0-.12V523H347.5a.35.35,0,0,1,.17,0,.34.34,0,0,1,.12.12.33.33,0,0,1,0,.17v1.1Zm-4.43-.61h-1.62l.09-.34V503.61h1.72l-.19.33v19.84Z"/><path class="cls-2" d="M354.89,524.39h-.15a.22.22,0,0,1-.17-.17.66.66,0,0,1,0-.15V503h1.19a.3.3,0,0,1,.18,0,.43.43,0,0,1,.11.12.34.34,0,0,1,0,.17V523h9.75a.58.58,0,0,1,.38.13,1.22,1.22,0,0,1,.29.37,2.76,2.76,0,0,1,.2.47,1.61,1.61,0,0,1,.07.46Zm10.37-5h1.19a.33.33,0,0,1,.17,0,.49.49,0,0,1,.12.13.29.29,0,0,1,0,.16v4.71a3.81,3.81,0,0,1-.94-.09.67.67,0,0,1-.46-.31,1.09,1.09,0,0,1-.12-.55v-4.09Z"/><path class="cls-2" d="M372.87,524.39h-1.23a.25.25,0,0,1-.16-.06.31.31,0,0,1-.1-.15.6.6,0,0,1,0-.22l1.05-3c.36-1,.71-2,1.06-3s.7-2,1.05-3,.72-2,1.07-3,.71-2,1.06-3,.7-2,1.05-3,.71-2,1.06-3h2.66a.42.42,0,0,1,.2.05.23.23,0,0,1,.1.12l.06.17,1.59,4.89,1.59,4.87,1.59,4.88,1.59,4.89c.1.3.2.61.31.92l.3.91h-1.34a.4.4,0,0,1-.2,0,.32.32,0,0,1-.12-.17l-.14-.34-1.15-3.56c-.44-1.35-.9-2.79-1.4-4.29s-1-3-1.49-4.53-.94-2.92-1.37-4.25-.81-2.46-1.13-3.42l.49.37h-1.38l.49-.34c-.35,1-.74,2.06-1.18,3.3s-.9,2.58-1.4,4-1,2.92-1.55,4.43l-1.57,4.53Zm1.77-8.46h9.87l.68-.31.18.92.15.82H375a.33.33,0,0,1-.17,0,.37.37,0,0,1-.12-.13.3.3,0,0,1-.05-.16Z"/><path class="cls-2" d="M395.52,524.39h-1.2a.29.29,0,0,1-.16,0,.33.33,0,0,1-.13-.13.29.29,0,0,1,0-.16V503h2.47a.69.69,0,0,1,.22,0,.38.38,0,0,1,.15.09.7.7,0,0,1,.12.18c.23.43.55,1.07,1,1.93s.94,1.85,1.53,3,1.23,2.38,1.91,3.72,1.39,2.69,2.11,4.08l2.12,4.09c.7,1.35,1.34,2.6,1.93,3.76l-1.19-1.07h1.71l-.46.77q-.06-1.53-.09-3.09c0-1,0-2.09-.05-3.15s0-2.12,0-3.18V503h1.19a.32.32,0,0,1,.24.09.3.3,0,0,1,.1.24v21.06h-2.51a.5.5,0,0,1-.29-.07.88.88,0,0,1-.23-.3c-.67-1.3-1.43-2.76-2.26-4.38s-1.72-3.33-2.66-5.12-1.89-3.62-2.84-5.47-1.9-3.66-2.82-5.41l1,1.19H395l.39-1.22c0,1.16.07,2.29.08,3.41s0,2.2,0,3.28,0,2.14,0,3.18,0,2.06,0,3.06v3c0,.65,0,1.43,0,2.32S395.52,523.58,395.52,524.39Z"/><path class="cls-2" d="M422.87,525a8.89,8.89,0,0,1-3.25-.55,6.23,6.23,0,0,1-2.4-1.59,6.73,6.73,0,0,1-1.48-2.5,10.13,10.13,0,0,1-.51-3.33v-6.67a10.13,10.13,0,0,1,.51-3.33,6.85,6.85,0,0,1,1.48-2.51,6.47,6.47,0,0,1,2.4-1.59,9.11,9.11,0,0,1,3.25-.55,11.34,11.34,0,0,1,2.63.28,7.15,7.15,0,0,1,2,.75,6,6,0,0,1,1.37,1,.14.14,0,0,1,.08.09l0,.13a.51.51,0,0,1,0,.09v4.37h-1.2a.32.32,0,0,1-.24-.09.35.35,0,0,1-.09-.25V504.1l.7,1.55a6.82,6.82,0,0,0-2.35-1.4,8.91,8.91,0,0,0-2.91-.43,6.51,6.51,0,0,0-3.25.77,4.92,4.92,0,0,0-2.08,2.24,8.43,8.43,0,0,0-.72,3.69v6.35a9.7,9.7,0,0,0,.41,2.89,5.76,5.76,0,0,0,1.36,2.28,4.76,4.76,0,0,0,1.88,1.16,7.64,7.64,0,0,0,2.4.37A7.79,7.79,0,0,0,426,523a11.29,11.29,0,0,0,2.6-1.65H429v1.19a.51.51,0,0,1,0,.17.41.41,0,0,1-.1.13,6.69,6.69,0,0,1-1.6,1.18,8.18,8.18,0,0,1-2,.73A9.93,9.93,0,0,1,422.87,525Z"/><path class="cls-2" d="M433.42,503h14a.3.3,0,0,1,.18,0,.43.43,0,0,1,.11.12.33.33,0,0,1,0,.17v1.1h-14a.31.31,0,0,1-.17,0,.53.53,0,0,1-.13-.13.29.29,0,0,1,0-.16V503Zm2.47,21.39-.12,0a.58.58,0,0,1-.18-.18.27.27,0,0,1,0-.12V503.3h1.68l-.15.34V523h10.36a.31.31,0,0,1,.33.33v1.1Zm.28-11.61h9.75a.33.33,0,0,1,.17,0,.43.43,0,0,1,.12.11.3.3,0,0,1,.05.18v1.1H436.17Z"/><path class="cls-2" d="M457.32,524.55h-2.54a.39.39,0,0,1-.29-.17.33.33,0,0,1,0-.17v-2.72H457a.3.3,0,0,1,.18,0,.35.35,0,0,1,.1.11.24.24,0,0,1,.05.18Z"/><path class="cls-2" d="M476.21,503h1.19a.33.33,0,0,1,.25.09.32.32,0,0,1,.09.24v21.06h-1.19a.33.33,0,0,1-.17,0,.37.37,0,0,1-.12-.13.3.3,0,0,1-.05-.16V503Zm1.1,9.78h11.83l.67-.31v1.74H477.65a.38.38,0,0,1-.16,0l-.1-.07a.24.24,0,0,1-.06-.11.5.5,0,0,1,0-.12Zm13.27,11.61h-1.19a.31.31,0,0,1-.17,0,.37.37,0,0,1-.12-.13.24.24,0,0,1-.05-.16V503h1.19l.12,0a.41.41,0,0,1,.11.07.44.44,0,0,1,.08.11.27.27,0,0,1,0,.12v21.06Z"/><path class="cls-2" d="M503.05,525a6.9,6.9,0,0,1-2.42-.39,4.69,4.69,0,0,1-1.74-1.15,5.07,5.07,0,0,1-1.07-1.8,7.36,7.36,0,0,1-.37-2.37V503h1.2a.29.29,0,0,1,.16,0,.37.37,0,0,1,.13.12.33.33,0,0,1,0,.17v15.9a4.43,4.43,0,0,0,1.1,3.19,4,4,0,0,0,3,1.15,7.06,7.06,0,0,0,2.78-.57,7.7,7.7,0,0,0,2.64-2,17.06,17.06,0,0,0,2.56-3.91v4.19h-1.26a10.66,10.66,0,0,1-1.83,2,8,8,0,0,1-2.23,1.29A7.84,7.84,0,0,1,503.05,525Zm8.92-.61h-1.31a.19.19,0,0,1-.09,0l-.06-.08a.41.41,0,0,1-.05-.09.3.3,0,0,1,0-.1V503h1.2a.35.35,0,0,1,.17,0,.34.34,0,0,1,.12.12.33.33,0,0,1,0,.17v21.06Z"/><path class="cls-2" d="M520.5,524.39h-1.16a.33.33,0,0,1-.17,0,.37.37,0,0,1-.12-.13.3.3,0,0,1,0-.16V503h2.36a.66.66,0,0,1,.21,0,.29.29,0,0,1,.15.12.89.89,0,0,1,.13.24c.44,1,.9,2,1.36,3.11s.92,2.16,1.39,3.28l1.42,3.41c.48,1.15,1,2.31,1.45,3.47s1,2.31,1.5,3.45l-1.5-1.89h2l-1.53,1.89c.53-1.16,1.06-2.36,1.59-3.59s1-2.46,1.57-3.7l1.53-3.6,1.42-3.34q.68-1.58,1.26-2.88h2.35a.33.33,0,0,1,.17,0,.43.43,0,0,1,.12.11.3.3,0,0,1,0,.18v21.06h-1.19a.35.35,0,0,1-.17,0,.37.37,0,0,1-.12-.13.29.29,0,0,1,0-.16v-7c0-.78,0-1.58,0-2.38l0-2.46c0-.84,0-1.69,0-2.57s0-1.78.07-2.72.06-1.91.08-2.91l.61.8h-1.89l1.1-1.07c-.47,1.08-1,2.22-1.48,3.41s-1,2.4-1.58,3.64l-1.56,3.62-1.47,3.38c-.46,1.06-.9,2-1.31,2.91H528a.39.39,0,0,1-.18,0,.46.46,0,0,1-.19-.23c-.2-.47-.5-1.15-.88-2.05s-.83-1.93-1.33-3.12l-1.59-3.74c-.56-1.32-1.12-2.62-1.68-3.93l-1.58-3.67,1.1.89h-1.8l.43-.92c0,1,.07,2,.1,2.95s.06,1.87.08,2.75,0,1.75,0,2.59,0,1.66,0,2.47,0,1.62,0,2.4v7.32Z"/><path class="cls-2" d="M545,524.39h-1.22a.27.27,0,0,1-.17-.06.24.24,0,0,1-.09-.15.6.6,0,0,1,0-.22c.34-1,.7-2,1-3s.71-2,1.06-3,.69-2,1-3l1.07-3c.36-1,.71-2,1-3s.7-2,1.06-3,.71-2,1-3h2.66a.39.39,0,0,1,.2.05.25.25,0,0,1,.11.12l.06.17,1.59,4.89,1.59,4.87,1.59,4.88,1.59,4.89.3.92.31.91h-1.35a.36.36,0,0,1-.19,0,.29.29,0,0,1-.13-.17c0-.08-.07-.2-.13-.34l-1.15-3.56c-.44-1.35-.91-2.79-1.41-4.29s-1-3-1.48-4.53-.95-2.92-1.37-4.25-.81-2.46-1.14-3.42l.49.37h-1.37l.49-.34c-.35,1-.74,2.06-1.18,3.3s-.91,2.58-1.41,4-1,2.92-1.54,4.43l-1.57,4.53Zm1.78-8.46h9.87l.67-.31.19.92.15.82H547.06a.27.27,0,0,1-.16,0,.33.33,0,0,1-.13-.13.29.29,0,0,1,0-.16Z"/><path class="cls-2" d="M567.6,524.39h-1.19a.33.33,0,0,1-.17,0,.37.37,0,0,1-.12-.13.29.29,0,0,1,0-.16V503h2.47a.78.78,0,0,1,.22,0,.38.38,0,0,1,.15.09.7.7,0,0,1,.12.18c.22.43.55,1.07,1,1.93s.93,1.85,1.53,3l1.91,3.72q1,2,2.11,4.08l2.12,4.09,1.93,3.76-1.2-1.07h1.72l-.46.77c0-1-.08-2.05-.09-3.09s0-2.09-.05-3.15,0-2.12,0-3.18V503h1.2a.31.31,0,0,1,.33.33v21.06h-2.5a.48.48,0,0,1-.29-.07.78.78,0,0,1-.23-.3q-1-1.95-2.26-4.38t-2.67-5.12l-2.84-5.47c-1-1.86-1.89-3.66-2.81-5.41l1,1.19h-1.44l.4-1.22c0,1.16.07,2.29.08,3.41s0,2.2,0,3.28,0,2.14,0,3.18,0,2.06,0,3.06v3c0,.65,0,1.43,0,2.32S567.6,523.58,567.6,524.39Z"/><path class="cls-2" d="M596.64,503h8.62a14.82,14.82,0,0,1,2,.13,8.4,8.4,0,0,1,1.87.48,4.78,4.78,0,0,1,1.53.94,4.29,4.29,0,0,1,1,1.59,6.5,6.5,0,0,1,.39,2.39v2.08a5.86,5.86,0,0,1-.45,2.35,4.55,4.55,0,0,1-1.31,1.76,6.21,6.21,0,0,1-2.09,1.1,9.56,9.56,0,0,1-2.79.38H600.1l-.34.09v-1.53h5.59a8.36,8.36,0,0,0,2.25-.27,4.05,4.05,0,0,0,1.6-.83,3.43,3.43,0,0,0,1-1.34,5,5,0,0,0,.32-1.84v-2.1a4.88,4.88,0,0,0-.23-1.56,2.91,2.91,0,0,0-.75-1.17,3.86,3.86,0,0,0-1.68-.91,9.48,9.48,0,0,0-2.63-.31H597a.33.33,0,0,1-.25-.09.32.32,0,0,1-.09-.24V503Zm3.67,21.39h-1.19a.35.35,0,0,1-.25-.09.32.32,0,0,1-.09-.24V503.61h1.68l-.15.33v20.45Z"/><path class="cls-2" d="M616.51,503h8.8a7.85,7.85,0,0,1,2.57.38,5,5,0,0,1,1.89,1.1,4.69,4.69,0,0,1,1.17,1.76,6.62,6.62,0,0,1,.39,2.35v1.25a6.2,6.2,0,0,1-.41,2.33,4.84,4.84,0,0,1-3.06,2.88,7.68,7.68,0,0,1-2.55.39H620l-.33.27V514h5.59a5.63,5.63,0,0,0,2.52-.49,3.34,3.34,0,0,0,1.5-1.45,4.94,4.94,0,0,0,.5-2.34v-1a5.65,5.65,0,0,0-.26-1.79,3,3,0,0,0-.81-1.33,3.71,3.71,0,0,0-1.39-.85,5.92,5.92,0,0,0-2.06-.31h-8.37a.33.33,0,0,1-.25-.09.32.32,0,0,1-.09-.24V503Zm3.67,21.39H619a.31.31,0,0,1-.33-.33V503.61h1.89l-.36.33v20.45Zm5.9-10.15,1.94,3.69,1.91,3.68a3.15,3.15,0,0,0,.84,1.06,1.73,1.73,0,0,0,1,.29h.92v1.1a.32.32,0,0,1-.09.24.35.35,0,0,1-.25.09h-.88a3,3,0,0,1-1.2-.24,3.17,3.17,0,0,1-1-.75,7.56,7.56,0,0,1-.87-1.27c-.61-1.2-1.23-2.4-1.85-3.59L624.73,515Z"/><path class="cls-2" d="M636.07,503h14a.3.3,0,0,1,.18,0,.32.32,0,0,1,.11.12.34.34,0,0,1,.05.17v1.1h-14a.33.33,0,0,1-.17,0,.37.37,0,0,1-.12-.13.3.3,0,0,1,0-.16V503Zm2.48,21.39-.12,0a.23.23,0,0,1-.11-.08.39.39,0,0,1-.08-.1.27.27,0,0,1,0-.12V503.3h1.68l-.15.34V523H650.1a.37.37,0,0,1,.25.09.32.32,0,0,1,.09.24v1.1Zm.27-11.61h9.75a.33.33,0,0,1,.17,0,.43.43,0,0,1,.12.11.3.3,0,0,1,0,.18v1.1H638.82Z"/><path class="cls-2" d="M662.82,525a8.91,8.91,0,0,1-3.26-.55,6.23,6.23,0,0,1-2.4-1.59,6.86,6.86,0,0,1-1.48-2.5,10.13,10.13,0,0,1-.5-3.33v-6.67a10.13,10.13,0,0,1,.5-3.33,7,7,0,0,1,1.48-2.51,6.47,6.47,0,0,1,2.4-1.59,9.13,9.13,0,0,1,3.26-.55,11.31,11.31,0,0,1,2.62.28,7.15,7.15,0,0,1,2,.75,6.34,6.34,0,0,1,1.38,1,.13.13,0,0,1,.07.09l0,.13a.51.51,0,0,1,0,.09v4.37h-1.19a.33.33,0,0,1-.25-.09.35.35,0,0,1-.09-.25V504.1l.7,1.55a6.73,6.73,0,0,0-2.35-1.4,8.85,8.85,0,0,0-2.9-.43,6.55,6.55,0,0,0-3.26.77,4.92,4.92,0,0,0-2.08,2.24,8.43,8.43,0,0,0-.72,3.69v6.35a9.38,9.38,0,0,0,.42,2.89,5.65,5.65,0,0,0,1.36,2.28,4.69,4.69,0,0,0,1.88,1.16,7.55,7.55,0,0,0,2.4.37,7.74,7.74,0,0,0,3.11-.58,11.08,11.08,0,0,0,2.6-1.65h.37v1.19a.51.51,0,0,1,0,.17.38.38,0,0,1-.09.13,6.75,6.75,0,0,1-1.61,1.18,8.18,8.18,0,0,1-2,.73A9.84,9.84,0,0,1,662.82,525Z"/><path class="cls-2" d="M675.2,503h10a.35.35,0,0,1,.25.09.32.32,0,0,1,.09.24v1.1H675.53a.3.3,0,0,1-.24-.1.37.37,0,0,1-.09-.23V503Zm10.39,21.39H675.53a.33.33,0,0,1-.15,0,.28.28,0,0,1-.11-.08.21.21,0,0,1-.06-.1.49.49,0,0,1,0-.12V523h10a.33.33,0,0,1,.17,0,.34.34,0,0,1,.12.12.34.34,0,0,1,.05.17v1.1Zm-4.43-.61h-1.62l.09-.34V503.61h1.71l-.18.33v19.84Z"/><path class="cls-2" d="M699,502.51a12.8,12.8,0,0,1,3.54.44,5.08,5.08,0,0,1,2.32,1.24.57.57,0,0,1,.2.23.63.63,0,0,1,0,.26v3.76h-1.19a.32.32,0,0,1-.25-.1.32.32,0,0,1-.09-.24V504l.83,1.59a4.87,4.87,0,0,0-2.11-1.25,11.2,11.2,0,0,0-3.3-.43,8,8,0,0,0-2.22.29,5.45,5.45,0,0,0-1.71.83,3.6,3.6,0,0,0-1.1,1.3,3.71,3.71,0,0,0-.38,1.71v.58a4.06,4.06,0,0,0,.32,1.68A3,3,0,0,0,695,511.6a8.15,8.15,0,0,0,2.23,1l3,.86a17.33,17.33,0,0,1,2.37.84,6.46,6.46,0,0,1,1.6,1,3.32,3.32,0,0,1,.9,1.3,4.83,4.83,0,0,1,.29,1.79v1a5.21,5.21,0,0,1-.81,2.9,5.35,5.35,0,0,1-2.36,2,9.11,9.11,0,0,1-3.76.7,15.38,15.38,0,0,1-2.8-.24,10.61,10.61,0,0,1-2.28-.68,5,5,0,0,1-1.53-1,.63.63,0,0,1-.15-.23.85.85,0,0,1,0-.23v-1.19H692A7.82,7.82,0,0,0,694.8,523a12.53,12.53,0,0,0,3.6.45,6.45,6.45,0,0,0,3.91-1.08,3.64,3.64,0,0,0,1.46-3.13v-.62a3.29,3.29,0,0,0-.35-1.62,3,3,0,0,0-1.19-1.11,10.69,10.69,0,0,0-2.31-.9l-3-.89a11.76,11.76,0,0,1-2.31-.89,5.28,5.28,0,0,1-1.51-1.11,3.74,3.74,0,0,1-.84-1.42,5.72,5.72,0,0,1-.26-1.84v-.91a4.66,4.66,0,0,1,.52-2.22A5.14,5.14,0,0,1,694,504a6.59,6.59,0,0,1,2.2-1.1A9.37,9.37,0,0,1,699,502.51Z"/><path class="cls-2" d="M711.57,503h10.06a.31.31,0,0,1,.33.33v1.1H711.91a.3.3,0,0,1-.25-.1.37.37,0,0,1-.09-.23V503ZM722,524.39H711.91a.38.38,0,0,1-.16,0,.25.25,0,0,1-.1-.08.21.21,0,0,1-.06-.1.25.25,0,0,1,0-.12V523h10.06a.29.29,0,0,1,.16,0,.3.3,0,0,1,.13.12.33.33,0,0,1,0,.17v1.1Zm-4.43-.61h-1.62l.09-.34V503.61h1.71l-.18.33v19.84Z"/><path class="cls-2" d="M735,502.38a8.38,8.38,0,0,1,3.89.88,6.44,6.44,0,0,1,2.72,2.68,9.62,9.62,0,0,1,1,4.67V517a8.66,8.66,0,0,1-1.08,4.57,6.48,6.48,0,0,1-2.82,2.58,8.8,8.8,0,0,1-3.78.82,8.56,8.56,0,0,1-3.74-.82,6.53,6.53,0,0,1-2.8-2.6,8.81,8.81,0,0,1-1.07-4.59v-6.38a9.86,9.86,0,0,1,1-4.67,6.18,6.18,0,0,1,2.7-2.68A8.68,8.68,0,0,1,735,502.38Zm-6.14,14.8a7.16,7.16,0,0,0,.52,2.86,6.43,6.43,0,0,0,1.31,2,5.73,5.73,0,0,0,1.67,1.08,6.29,6.29,0,0,0,2.58.45,6.39,6.39,0,0,0,3.15-.77,5.53,5.53,0,0,0,2.19-2.23,7.23,7.23,0,0,0,.81-3.54v-6.67a8.73,8.73,0,0,0-.25-2.14,6.34,6.34,0,0,0-.67-1.68,5.65,5.65,0,0,0-1-1.25,5.19,5.19,0,0,0-1.76-1.06,6.88,6.88,0,0,0-2.43-.41,6.66,6.66,0,0,0-3.53.84,4.9,4.9,0,0,0-2,2.31,8.54,8.54,0,0,0-.63,3.39Z"/><path class="cls-2" d="M750.39,524.39H749.2a.33.33,0,0,1-.17,0,.37.37,0,0,1-.12-.13.3.3,0,0,1,0-.16V503h2.48a.66.66,0,0,1,.21,0,.38.38,0,0,1,.15.09,1.06,1.06,0,0,1,.13.18c.22.43.55,1.07,1,1.93s.94,1.85,1.53,3,1.23,2.38,1.91,3.72l2.11,4.08,2.13,4.09,1.92,3.76-1.19-1.07h1.71l-.46.77q-.06-1.53-.09-3.09c0-1,0-2.09,0-3.15s0-2.12,0-3.18V503h1.19a.35.35,0,0,1,.25.09.32.32,0,0,1,.09.24v21.06h-2.51a.5.5,0,0,1-.29-.07.88.88,0,0,1-.23-.3l-2.26-4.38c-.84-1.62-1.72-3.33-2.66-5.12s-1.88-3.62-2.84-5.47-1.9-3.66-2.81-5.41l1,1.19h-1.43l.4-1.22c0,1.16.06,2.29.07,3.41s0,2.2,0,3.28,0,2.14,0,3.18,0,2.06,0,3.06v3c0,.65,0,1.43,0,2.32S750.39,523.58,750.39,524.39Z"/><path class="cls-2" d="M773.37,524.55h-2.53a.34.34,0,0,1-.17,0,.34.34,0,0,1-.12-.12.34.34,0,0,1,0-.17v-2.72H773a.3.3,0,0,1,.18,0l.11.11a.3.3,0,0,1,0,.18Z"/><path class="cls-3" d="M402.57,417.08c16.91-.54,32.68-7.43,48.4-15.18,15.36-7.56,30.61-16.12,46.41-19.78,12.46-2.89,24.67-2.91,36.22,4.81,7.15,4.78,14.53,14.64,17.66,24.38-1.89-.9-3.51-1.66-5.12-2.45-13.07-6.43-26.59-6.36-40.31-3-12.26,3-24.23,8.9-36.23,14.55-11.42,5.39-22.88,10.48-34.64,11.28-7.08.48-14.11.05-20.83-3.31C409.87,426.26,406.12,422.76,402.57,417.08Z"/><path class="cls-3" d="M548,438.91a20.73,20.73,0,0,0-3.68-3.42c-12.49-9.87-26.06-12.09-40-11.47-17.71.78-39.95,11.43-57.35,16.22-17.8,4.89-35.64,8.93-54.44,6.38,3.7,6.36,7.71,10.56,12.35,13.48,7.32,4.6,15.11,6.33,23,7.14,13.1,1.36,26.06-1.65,39-5,13.58-3.49,32.05-12,45.81-12.82,7.24-.41,10.15-.79,17.18.59a80.09,80.09,0,0,1,11.28,2.44,85.13,85.13,0,0,1,14.86,5.93,34.68,34.68,0,0,0-3.35-12.86A25.76,25.76,0,0,0,548,438.91Z"/><path class="cls-3" d="M535.8,363.2c-9.21-1.79-18.34,0-27.44,3.53-7.22,2.79-14.42,5.83-21.62,8.78-17.71,7.25-35.49,13.41-53.47,16.79-.48.09-1,.47-1.51-.53a153.62,153.62,0,0,1,15.57-16.22c11.87-11.13,24.06-21,37.19-26.27,13.56-5.42,27-6.65,39.76,2A36.44,36.44,0,0,1,535.8,363.2Z"/><path class="cls-1" d="M638.81,411.26q5.91-9.67,5.92-23.45,0-19.37-11.54-30.41t-31.68-11h-40.4v119h14.8V429.1h25.6q2.37,0,6.52-.34l.27.45c4.82-1.73,9.63-2.57,14.08-4A34.12,34.12,0,0,0,638.81,411.26Zm-37.74,3.4H575.91V361.14h25.16q14.05,0,21.46,6.88t7.4,19.79q0,12.92-7.4,19.88T601.07,414.66Z"/><path class="cls-1" d="M646.51,465.3l-24.57-39.93.44-.2c-4.45,1.47-9.26,2.31-14.08,4l22.07,36.09Z"/><path class="cls-1" d="M392.75,357.4q11.55,11,11.55,30.41t-11.55,30.42q-11.53,11-31.67,11h-25.6v36h-14.8V346.35h40.4Q381.21,346.35,392.75,357.4ZM382.1,407.61q7.39-6.89,7.4-19.8T382.1,368q-7.41-6.88-21.46-6.88H335.48v53.35h25.16Q374.7,414.49,382.1,407.61Z"/><path class="cls-1" d="M71.41,325.1q1.45,7.68,2.92,15.35c.15.75.18,1.37-.91,1a10.26,10.26,0,0,0-5.48.18c.58-5.69,2.12-11.06,2.92-16.55Z"/><path class="cls-1" d="M70.93,372.44q-1.4-7.54-2.78-15.11c-.15-.8-.06-1.25,1-1a7.89,7.89,0,0,0,3.92,0c1.25-.32,1.33.25,1.14,1.2-1,5-1.89,10-2.83,14.94Z"/><path class="cls-4" d="M77.07,348.83a5.78,5.78,0,0,1-5.66,5.59c-3.23.11-6.12-2.45-6.12-5.41a5.89,5.89,0,0,1,11.78-.18Z"/><path class="cls-1" d="M48.51,348.93a123.5,123.5,0,0,1,15.59-3.37,7.83,7.83,0,0,0-.4,5.7c.28.76-.06.94-.74.79C58.14,351,53.32,350,48.51,348.93Z"/><path class="cls-1" d="M78.23,345.4l15.62,3.44,0,.31c-4.66.9-9.33,1.78-14,2.7-.92.18-1.25-.12-1-1A7.81,7.81,0,0,0,78.23,345.4Z"/></svg>